<?xml version="1.0" encoding="utf-8"?>
<!-- Generator: Adobe Illustrator 24.3.0, SVG Export Plug-In . SVG Version: 6.00 Build 0)  -->
<svg version="1.1" id="Capa_1" xmlns="http://www.w3.org/2000/svg" xmlns:xlink="http://www.w3.org/1999/xlink" x="0px" y="0px"
	 viewBox="0 0 512 512" style="enable-background:new 0 0 512 512;" xml:space="preserve">
<style type="text/css">
	.st0{fill:#5F6080;}
</style>
<g>
	<g>
		<path class="st0" d="M451.6,169.4l56.2-56.6c1.7-1.7,2.4-4,2.1-6.4c-0.3-2.3-1.8-4.4-3.8-5.5L321.5,0.9c-2.9-1.6-6.5-1.1-8.9,1.3
			L256,58.8L199.4,2.2C198,0.8,196.1,0,194.1,0c-1.2,0-2.5,0.3-3.6,0.9L131.2,33c-1.8,1-3,2.5-3.6,4.5c-0.6,1.9-0.4,4,0.6,5.7
			c1.3,2.4,3.9,3.9,6.6,3.9c1.2,0,2.5-0.3,3.6-0.9l54.3-29.4l50.9,50.9L72.4,160.2l-50.4-50.8L112,60.5c1.8-1,3.1-2.5,3.6-4.5
			c0.6-1.9,0.4-4-0.6-5.7c-1.3-2.4-3.8-3.9-6.6-3.9c-1.2,0-2.5,0.3-3.6,0.9L6,100.9c-2.1,1.1-3.5,3.2-3.8,5.5
			c-0.3,2.3,0.4,4.7,2.1,6.4l56.2,56.7L4.2,226.1c-1.7,1.7-2.4,4-2.1,6.4c0.3,2.3,1.8,4.4,3.8,5.5l57.5,31.2v135.3
			c0,0.3,0,0.5,0,0.8c0,0.1,0,0.2,0,0.3c0,0.1,0,0.3,0.1,0.4c0,0.2,0.1,0.3,0.1,0.5c0,0.1,0,0.1,0.1,0.2c0,0.2,0.1,0.3,0.2,0.5
			c0,0.1,0,0.1,0.1,0.2c0.1,0.1,0.1,0.3,0.2,0.4c0,0.1,0.1,0.2,0.1,0.3c0.1,0.1,0.1,0.2,0.2,0.3c0.1,0.1,0.1,0.2,0.2,0.3
			c0.1,0.1,0.1,0.2,0.2,0.2c0.1,0.1,0.2,0.2,0.3,0.4c0.1,0.1,0.1,0.1,0.2,0.2c0.1,0.1,0.2,0.2,0.3,0.4c0.1,0.1,0.1,0.1,0.2,0.2
			c0.1,0.1,0.2,0.2,0.3,0.3c0.1,0.1,0.2,0.2,0.4,0.3c0.1,0.1,0.1,0.1,0.2,0.2c0.2,0.1,0.4,0.3,0.7,0.4l184.9,100
			c0.3,0.1,0.5,0.3,0.8,0.4c0.1,0,0.1,0,0.2,0.1c0.2,0.1,0.4,0.1,0.6,0.2c0.1,0,0.2,0,0.2,0.1c0.2,0,0.4,0.1,0.6,0.1
			c0.1,0,0.1,0,0.2,0c0.3,0,0.6,0.1,0.9,0.1c0.3,0,0.6,0,0.9-0.1c0.1,0,0.1,0,0.2,0c0.2,0,0.4-0.1,0.6-0.1c0.1,0,0.2,0,0.2-0.1
			c0.2-0.1,0.4-0.1,0.6-0.2c0.1,0,0.1,0,0.2-0.1c0.3-0.1,0.6-0.2,0.8-0.4l184.9-100c0.2-0.1,0.5-0.3,0.7-0.4
			c0.1-0.1,0.1-0.1,0.2-0.2c0.1-0.1,0.2-0.2,0.4-0.3c0.1-0.1,0.2-0.2,0.3-0.3c0.1-0.1,0.1-0.1,0.2-0.2c0.1-0.1,0.2-0.2,0.3-0.4
			c0.1-0.1,0.1-0.1,0.2-0.2c0.1-0.1,0.2-0.2,0.3-0.4c0.1-0.1,0.1-0.2,0.2-0.2c0.1-0.1,0.1-0.2,0.2-0.3c0.1-0.1,0.1-0.2,0.2-0.3
			c0-0.1,0.1-0.2,0.1-0.3c0.1-0.1,0.1-0.3,0.2-0.4c0-0.1,0.1-0.1,0.1-0.2c0.1-0.2,0.1-0.3,0.2-0.5c0-0.1,0-0.1,0.1-0.2
			c0-0.2,0.1-0.3,0.1-0.5c0-0.1,0-0.3,0.1-0.4c0-0.1,0-0.2,0-0.3c0-0.3,0-0.5,0-0.8V269.1L506,238c2.1-1.1,3.5-3.2,3.9-5.5
			c0.3-2.3-0.4-4.7-2.1-6.4L451.6,169.4z M319.3,16.8l170.8,92.6l-50.4,50.8L268.4,67.6L319.3,16.8z M74.5,258.1l-52.6-28.5
			l50.4-50.8l171.2,92.5l-50.9,50.9L74.5,258.1C74.6,258.1,74.6,258.1,74.5,258.1z M248.5,491.9L78.5,400V277.3l112,60.7
			c1.1,0.6,2.4,0.9,3.6,0.9c1.9,0,3.9-0.8,5.3-2.2l49.1-49.1V491.9z M256,260.9L86.8,169.4L256,78l169.2,91.5L256,260.9z M437.5,258
			c0,0-0.1,0-0.1,0.1L400,278.4c-1.8,1-3,2.5-3.6,4.5c-0.6,1.9-0.4,4,0.6,5.7c1.3,2.4,3.9,3.9,6.6,3.9c1.2,0,2.5-0.3,3.6-0.9
			l26.4-14.3V400l-170,91.9V287.5l49.1,49.1c1.4,1.4,3.3,2.2,5.3,2.2c1.2,0,2.5-0.3,3.6-0.9l59.3-32.1c1.8-1,3-2.5,3.6-4.5
			c0.6-1.9,0.4-3.9-0.6-5.7c-1.3-2.4-3.9-3.9-6.6-3.9c-1.2,0-2.5,0.3-3.6,0.9l-54.3,29.4l-50.9-50.9l171.2-92.5l50.4,50.9L437.5,258
			z"/>
	</g>
</g>
</svg>
