<?xml version="1.0" encoding="utf-8"?>
<!-- Generator: Adobe Illustrator 24.3.0, SVG Export Plug-In . SVG Version: 6.00 Build 0)  -->
<svg version="1.1" id="Слой_1" xmlns="http://www.w3.org/2000/svg" xmlns:xlink="http://www.w3.org/1999/xlink" x="0px" y="0px"
	 viewBox="0 0 1024 1280" style="enable-background:new 0 0 1024 1280;" xml:space="preserve">
<style type="text/css">
	.st0{fill:#5F6080;}
</style>
<g>
	<g>
		<path class="st0" d="M205.6,806.3c-8.3-8.6-16.2-17.5-23.8-26.8c-2-2.4-3.9-4.9-5.8-7.3c-3.3-4.1,2.5,3.3-0.7-0.9
			c-0.6-0.8-1.3-1.7-1.9-2.5c-3.7-5-7.4-10.1-10.9-15.2c-13.6-19.8-25.6-40.7-35.9-62.4c-1.2-2.6-2.4-5.2-3.6-7.9
			c-0.5-1.2-1.1-2.4-1.6-3.6c-0.3-0.7-2.4-5.6-0.5-1c-2.5-5.8-4.8-11.7-7-17.7c-4.2-11.5-8-23.1-11.3-34.9
			c-3.3-11.9-6.1-23.9-8.4-36c-1.1-5.9-2.1-11.7-3-17.6c-0.2-1.3-0.4-2.7-0.6-4c-0.5-3.3,0.6,4.9,0-0.4c-0.4-3.8-0.9-7.6-1.3-11.4
			c-2.3-22.8-2.8-45.7-1.6-68.6c0.6-10.6,1.5-21.2,2.8-31.7c0.2-1.5-0.1-5.6,0-0.1c0-1.3,0.4-2.8,0.6-4.1c0.3-2.3,0.7-4.5,1-6.8
			c0.9-5.4,1.8-10.8,2.9-16.1c4.1-20.3,9.5-40.2,16.4-59.7c1.6-4.6,3.3-9.2,5.1-13.8c0.9-2.3,1.8-4.5,2.7-6.8c0.4-1,0.7-2.2,1.3-3.1
			c-3,4.5-0.1,0.2,0.6-1.3c4.1-9.3,8.4-18.5,13.1-27.5c9.3-17.9,19.8-35.2,31.5-51.6c2.8-3.9,5.6-7.8,8.5-11.6
			c0.4-0.5,1-1.6,1.6-2.1c-3.6,2.9-1,1.3,0.1-0.1c1.9-2.4,3.8-4.8,5.7-7.2c6.1-7.4,12.4-14.7,18.9-21.7
			c13.7-14.7,28.4-28.4,43.9-41.2c2-1.7,4.1-3.3,6.1-4.9c0.9-0.7,1.7-1.3,2.6-2c2.3-1.8-4,3-0.4,0.3c4.2-3.1,8.4-6.3,12.7-9.3
			c8.2-5.8,16.6-11.4,25.2-16.6c17.3-10.5,35.3-19.9,53.9-28c1.2-0.5,2.4-1.2,3.7-1.6c-0.4,0.1-4.4,1.8-1.1,0.5c2.5-1,4.9-2,7.4-3
			c5-2,10-3.8,15-5.6c9.7-3.4,19.5-6.5,29.4-9.2c10-2.7,20.1-5.1,30.3-7.2c4.9-1,9.8-1.9,14.8-2.7c2.3-0.4,4.5-0.7,6.8-1.1
			c1.4-0.2,2.7-0.4,4.1-0.6c4.2-0.6-4.5,0.6,0.8-0.1c20.5-2.6,41.2-3.7,61.9-3.5c10.7,0.1,21.4,0.6,32.1,1.5
			c5.1,0.4,10.1,0.9,15.1,1.5c1.4,0.2,2.7,0.3,4.1,0.5c4.8,0.6-4.7-0.7,0.1,0c2.7,0.4,5.4,0.8,8.1,1.2c20.5,3.3,40.8,8,60.6,14.1
			c9.8,3,19.5,6.4,29,10.1c2.1,0.8,4.1,1.6,6.2,2.4c1.2,0.5,2.5,1,3.7,1.5c4.3,1.8-4.2-1.8,0.1,0c4.9,2.1,9.7,4.3,14.5,6.5
			c18.1,8.5,35.6,18.3,52.4,29.2c8.3,5.4,16.3,11,24.2,16.9c1.1,0.8,2.1,1.6,3.1,2.4c3.7,2.8-3.5-2.8,0.1,0.1
			c1.7,1.4,3.4,2.7,5.1,4.1c4.1,3.3,8.1,6.6,12.1,10.1c15.2,13.1,29.5,27.3,42.8,42.3c3.2,3.6,6.3,7.2,9.4,10.9c1.7,2,3.3,4,5,6.1
			c0.5,0.7,1.1,1.4,1.6,2.1c0.5,0.7,1.1,1.4,1.6,2.1c1.3,1.7,1.1,1.4-0.7-0.9c3.3,2.8,6.1,8.1,8.6,11.6c3.1,4.3,6,8.6,8.9,13
			c11.2,16.8,21.2,34.4,30,52.6c2.1,4.4,4.2,8.8,6.1,13.2c0.9,2,2,4,2.6,6.1c-1.5-5.2-0.5-1.1,0,0.1c0.7,1.6,1.3,3.3,2,4.9
			c3.7,9.3,7.1,18.7,10.1,28.3c6.2,19.5,11.1,39.5,14.6,59.7c0.8,4.7,2.4,10.1,2.3,14.9c0.1-5.4-0.2-1.3,0,0.1s0.3,2.7,0.5,4.1
			c0.3,2.7,0.6,5.5,0.9,8.2c1,10.6,1.7,21.3,1.9,32c0.5,20.9-0.4,41.9-2.8,62.8c-0.2,2.1-0.2,4.8-0.8,6.8c1.6-4.9,0.2-1.5,0,0.1
			c-0.2,1.4-0.4,2.7-0.6,4.1c-0.8,5.4-1.8,10.8-2.8,16.2c-1.9,10.2-4.3,20.3-6.9,30.4c-2.6,9.9-5.6,19.8-9,29.5
			c-1.6,4.6-3.2,9.2-5,13.8c-0.8,2.1-1.6,4.1-2.4,6.2c-0.5,1.2-1,2.5-1.5,3.7c-0.2,0.5-2.3,5.7-1,2.5c1.2-3.2-0.4,0.9-0.6,1.3
			c-0.5,1.2-1.1,2.4-1.6,3.6c-1,2.2-2,4.4-3,6.6c-2.1,4.6-4.3,9.2-6.6,13.7c-4.6,9-9.4,17.9-14.6,26.6c-5.1,8.7-10.6,17.2-16.3,25.5
			c-2.7,4-5.5,7.9-8.4,11.7c-1.4,1.9-2.9,4.7-4.7,6.3c2.8-2.4,1.7-2.2,0.7-0.9c-1.1,1.4-2.2,2.7-3.2,4.1
			c-12.5,15.7-26.1,30.5-40.6,44.4c-7.3,6.9-14.8,13.6-22.5,20c-3.7,3.1-7.4,6.1-11.2,9c-3.6,2.9,3.6-2.7-0.1,0.1
			c-0.7,0.5-1.4,1.1-2.1,1.6c-2.4,1.8-4.9,3.7-7.4,5.4c-16.2,11.7-33.2,22.2-50.8,31.6c-8.8,4.7-17.7,9-26.7,13.1
			c-2.4,1.1-4.9,2.1-7.3,3.2c-4.3,1.9,4.2-1.7-0.1,0c-0.8,0.3-1.6,0.7-2.5,1c-4.9,2-9.9,3.9-14.9,5.8c-19.4,7.1-39.2,12.8-59.4,17.1
			c-10.2,2.2-20.5,3.9-30.9,5.5c-4.8,0.7,4.7-0.6-0.1,0c-1.1,0.1-2.3,0.3-3.4,0.4c-2.5,0.3-5,0.6-7.5,0.8c-5.5,0.6-11,1-16.6,1.4
			c-24.4,1.6-48.8,1.2-73.1-1.2c-3-0.3-6-0.6-9-1c-1.8-0.2-3.6-0.4-5.4-0.7c4.7,0.6-1.2-0.2-1.8-0.3c-7.1-1-14.1-2.2-21.1-3.6
			c-13-2.6-25.9-5.7-38.6-9.4c-12.3-3.6-24.4-7.7-36.4-12.4c-3-1.2-5.9-2.4-8.9-3.6c-5.3-2.2,3.7,1.6-1.6-0.7
			c-1.3-0.6-2.6-1.2-4-1.7c-6.1-2.7-12-5.5-18-8.5c-9.4-4.6-22.1-2.8-27.4,7.2c-4.8,9-2.8,22.4,7.2,27.4
			c94.8,47.1,203.6,60.9,307.1,38.8c83.7-17.9,161.8-60,223.5-119.2c62-58.6,106.9-134.9,128.3-217.5c22-84.9,19.6-176.4-7.5-259.9
			c-26.3-81-74.9-154.5-139.7-209.8c-65.4-55.8-145.8-93.8-231-106.5c-88.6-13.3-178.5-1.6-260.5,34.4
			c-77.9,34.2-144.9,90.7-193.5,160.3C80,318.9,51.7,404.3,47.7,491C43,591.8,72,693.7,129.8,776.5c14.3,20.5,30.2,40.1,47.6,58.1
			c7.3,7.6,21.1,7.8,28.3,0C213,826.5,213.3,814.4,205.6,806.3L205.6,806.3z"/>
	</g>
</g>
<g>
	<g>
		<g>
			<path class="st0" d="M531.9,763.7c0-16.7,0-33.4,0-50.1c0-40.1,0-80.2,0-120.4c0-48.4,0-96.7,0-145.1c0-41.9,0-83.9,0-125.8
				c0-20.3,0.5-40.8,0-61.1c0-0.3,0-0.6,0-0.8c0-10.5-9.2-20.5-20-20s-20,8.8-20,20c0,16.7,0,33.4,0,50.1c0,40.1,0,80.2,0,120.4
				c0,48.4,0,96.7,0,145.1c0,41.9,0,83.9,0,125.8c0,20.3-0.5,40.8,0,61.1c0,0.3,0,0.6,0,0.8c0,10.5,9.2,20.5,20,20
				C522.7,783.2,531.8,774.9,531.9,763.7L531.9,763.7z"/>
		</g>
	</g>
	<g>
		<g>
			<path class="st0" d="M763.6,492.1c-16.7,0-33.4,0-50.1,0c-40.1,0-80.2,0-120.4,0c-48.4,0-96.7,0-145.1,0c-41.9,0-83.9,0-125.8,0
				c-20.3,0-40.8-0.5-61.1,0c-0.3,0-0.6,0-0.8,0c-10.5,0-20.5,9.2-20,20c0.5,10.8,8.8,20,20,20c16.7,0,33.4,0,50.1,0
				c40.1,0,80.2,0,120.4,0c48.4,0,96.7,0,145.1,0c41.9,0,83.9,0,125.8,0c20.3,0,40.8,0.5,61.1,0c0.3,0,0.6,0,0.8,0
				c10.5,0,20.5-9.2,20-20C783.1,501.3,774.8,492.1,763.6,492.1L763.6,492.1z"/>
		</g>
	</g>
</g>
</svg>
